<?xml version="1.0" encoding="UTF-8"?>
<svg id="Layer_1" data-name="Layer 1" xmlns="http://www.w3.org/2000/svg" viewBox="0 0 283.46 283.46">
  <defs>
    <style>
      .cls-1 {
        fill: #000;
        stroke-width: 0px;
      }
    </style>
  </defs>
  <g>
    <path class="cls-1" d="M57.9,211.11c.93.33,1.64.8,2.15,1.4s.75,1.32.75,2.15-.24,1.52-.73,2.15-1.15,1.06-1.99,1.3c.97.2,1.75.67,2.34,1.4s.88,1.62.88,2.64c0,.9-.26,1.69-.78,2.36-.52.68-1.25,1.2-2.2,1.56s-2.06.55-3.32.55h-8.19v-16h7.85c1.23,0,2.31.16,3.24.49ZM55.53,216.52c.27-.25.41-.59.41-1.02s-.14-.73-.41-.97c-.27-.24-.65-.35-1.12-.35h-2.88v2.72h2.88c.47,0,.84-.13,1.12-.38ZM55.86,222.67c.36-.27.54-.65.54-1.12,0-.44-.18-.79-.54-1.04-.36-.25-.84-.37-1.45-.35h-2.88v2.9h2.88c.61.01,1.09-.11,1.45-.39Z"/>
    <path class="cls-1" d="M77.19,226.62l-2.12-4.31h-2.51v4.31h-4.75v-16h7.46c2.15,0,3.81.49,4.99,1.48,1.18.99,1.77,2.39,1.77,4.2,0,1.17-.23,2.19-.7,3.05-.46.86-1.13,1.54-2,2.04l3.24,5.23h-5.39ZM72.56,218.65h2.72c.71,0,1.27-.19,1.66-.57.39-.38.58-.93.58-1.64s-.19-1.24-.58-1.61c-.39-.37-.94-.56-1.66-.56h-2.72v4.38Z"/>
    <path class="cls-1" d="M99.7,224.06h-6.46l-.96,2.56h-4.88l6.83-16h4.88l6.6,16h-5.07l-.94-2.56ZM98.44,220.59l-1.92-5.23-1.96,5.23h3.88Z"/>
    <path class="cls-1" d="M116.18,210.62v16h-4.75v-16h4.75Z"/>
    <path class="cls-1" d="M138.62,210.62v16h-4.04l-6.78-8.9v8.9h-4.36v-16h4.06l6.78,8.92v-8.92h4.34Z"/>
    <path class="cls-1" d="M153.78,212.59c-.78-.22-1.52-.33-2.2-.33-1.04,0-1.86.2-2.48.6-.62.4-.92.95-.92,1.63,0,.61.17,1.1.52,1.48.35.38.78.68,1.3.9.52.22,1.22.47,2.12.74,1.1.35,1.97.68,2.64.98s1.22.76,1.69,1.36c.46.6.7,1.39.7,2.36,0,.88-.24,1.66-.72,2.33-.48.67-1.16,1.19-2.03,1.55s-1.88.55-3.02.55-2.25-.22-3.33-.67c-1.08-.45-2.01-1.05-2.79-1.79l.82-1.58c.73.72,1.57,1.27,2.52,1.67.95.4,1.88.59,2.8.59,1.16,0,2.07-.22,2.74-.67.67-.45,1-1.07,1-1.86,0-.62-.17-1.13-.53-1.53-.35-.4-.78-.7-1.3-.92s-1.24-.48-2.17-.76c-1.06-.32-1.93-.63-2.59-.94-.66-.3-1.23-.75-1.69-1.35-.46-.59-.7-1.37-.7-2.33,0-.82.23-1.54.68-2.17.46-.62,1.1-1.11,1.94-1.45.84-.34,1.8-.51,2.9-.51.91,0,1.82.13,2.72.4.9.27,1.68.63,2.35,1.08l-.78,1.62c-.68-.44-1.42-.77-2.2-.99Z"/>
    <path class="cls-1" d="M176.06,212.05c1.09.94,1.63,2.26,1.63,3.96s-.54,3.11-1.63,4.09-2.62,1.46-4.6,1.46h-4.18v5.07h-1.83v-15.98h6c1.98,0,3.51.47,4.6,1.4ZM174.75,218.89c.79-.65,1.19-1.59,1.19-2.84s-.4-2.14-1.19-2.77c-.79-.63-1.91-.95-3.36-.95h-4.11v7.53h4.11c1.45,0,2.56-.32,3.36-.97Z"/>
    <path class="cls-1" d="M194.49,222.53h-8.7l-1.78,4.09h-1.94l7.17-15.98h1.89l7.14,15.98h-1.99l-1.8-4.09ZM193.76,220.84l-3.63-8.22-3.58,8.22h7.21Z"/>
    <path class="cls-1" d="M214.37,212.71c-.83-.36-1.68-.54-2.54-.54-1.19,0-2.28.29-3.28.86-1,.57-1.79,1.35-2.36,2.34s-.87,2.07-.87,3.24.29,2.23.87,3.22c.58.99,1.37,1.77,2.36,2.35,1,.58,2.09.87,3.28.87.87,0,1.71-.17,2.53-.51.82-.34,1.55-.82,2.19-1.43l1.12,1.21c-.81.76-1.72,1.36-2.75,1.79s-2.09.65-3.18.65c-1.51,0-2.89-.36-4.15-1.08-1.26-.72-2.26-1.71-3-2.96-.74-1.25-1.11-2.62-1.11-4.11s.37-2.83,1.12-4.08c.75-1.24,1.75-2.22,3.02-2.94,1.27-.72,2.67-1.08,4.19-1.08,1.08,0,2.13.21,3.15.62s1.92.99,2.69,1.73l-1.1,1.32c-.62-.62-1.35-1.11-2.18-1.47Z"/>
    <path class="cls-1" d="M236.36,210.64v1.69h-9.02v5.36h8.06v1.67h-8.06v5.57h9.31v1.69h-11.14v-15.98h10.84Z"/>
  </g>
  <path class="cls-1" d="M64.45,127.57c-1.3-7.29-.7-14.93,1.69-21.92.67-1.96,1.41-3.89,2.2-5.8.38-.92.99-1.73,1.43-2.63,1.54-3.13,3.62-5.91,5.75-8.66,4.71-6.07,10.41-11.07,16.74-15.39,5.58-3.81,11.55-6.85,17.82-9.35,5.7-2.27,11.56-3.97,17.58-5.09,2.99-.55,6-1.03,9.01-1.39,5.33-.64,10.69-.75,16.05-.53,6.24.26,12.41,1.16,18.47,2.69,5.02,1.26,9.9,2.95,14.62,5.09,5.07,2.3,9.82,5.14,14.2,8.55,2.04,1.58,3.91,3.39,5.76,5.2,3.07,2.99,5.62,6.41,7.75,10.11,2.23,3.87,3.9,7.97,4.91,12.33.84,3.6,1.29,7.24,1.24,10.94-.06,3.95-.72,7.8-1.73,11.62-1.2,4.51-3.15,8.69-5.49,12.69-.86,1.47-1.83,2.88-2.83,4.24-1.32,1.8-2.44,3.72-3.43,5.7-1.58,3.15-3.16,6.32-4.53,9.57-1.86,4.42-3.16,9.02-3.65,13.81-.31,3.08-.22,6.16,1.02,9.06.75,1.76,2.5,3.26,2.53,5.27.07,3.78-5.11,3.9-7.78,3.91-6.01.01-11.44-2.72-16.43-5.83-4.31-2.68-8.16-5.95-11.82-9.45-3.15-3-6.25-6.07-9.47-8.99-2.14-1.94-4.46-3.66-7-5.1-3.25-1.84-6.68-2.3-10.32-1.68-1.65.28-3.33.22-4.87-.35-3.26-1.22-5.65-3.45-6.42-6.92-1.21-5.44,1.4-9.99,6.35-11.74,3.36-1.19,6.88-1.53,10.44-1.35,5.08.25,9.72,1.82,13.89,4.72,2.3,1.6,4.17,3.64,5.83,5.88,1.75,2.35,3.17,4.9,4.59,7.46,2.35,4.24,4.91,8.34,7.61,12.35.1.14.21.28.43.36-.04-.22-.06-.45-.12-.66-.87-2.98-1.56-6.01-2.05-9.07-.59-3.76-.95-7.55-.98-11.36-.01-1.55-.07-3.11-.25-4.65-.41-3.66-2-6.81-4.48-9.49-2.5-2.7-5.51-4.67-8.86-6.15-4.14-1.83-8.49-2.72-13-2.96-5.57-.3-10.98.48-16.27,2.22-5.11,1.68-9.65,4.31-13.59,7.98-2.67,2.49-4.65,5.46-5.94,8.88-.35.94-.59,1.92-.81,2.9-.86,3.97-3.35,6.41-7.18,7.46-2.7.74-5.66.16-7.95-1.43-2.77-1.92-4.04-4.94-4.45-8.18-.37-2.89-.35-5.78.05-8.65.23-1.62.63-3.23,1.1-4.8.87-2.93,2.25-5.64,3.86-8.24,1.96-3.15,4.35-5.93,7.05-8.46,4.85-4.55,10.39-8.02,16.5-10.61,4.69-1.99,9.56-3.38,14.59-4.25,3.88-.67,7.79-1.04,11.71-1.05,3.77,0,7.53.34,11.26.97,4.47.75,8.77,2.05,12.91,3.84,4.67,2.01,8.94,4.68,12.68,8.17,3.21,3,5.87,6.42,7.73,10.42,1.65,3.56,2.72,7.27,2.79,11.25.05,2.75-.13,5.46-.77,8.14-.51,2.16-1,4.31-1.46,6.48-.53,2.53-1.01,5.07-1.5,7.6-.03.13.02.27.04.63.21-.34.36-.49.41-.67,1.31-4.74,3.36-9.19,5.33-13.67,1.61-3.65,3.1-7.35,4.06-11.23.85-3.45,1.19-6.96.72-10.5-.5-3.86-1.63-7.53-3.54-10.95-1.13-2.03-2.41-3.96-3.88-5.74-1.43-1.73-2.98-3.37-4.78-4.75-1.64-1.25-3.23-2.59-4.95-3.73-2.81-1.88-5.86-3.34-8.98-4.66-4.71-1.99-9.61-3.27-14.62-4.15-2.79-.49-5.6-.79-8.44-.83-2.83-.04-5.66-.11-8.48.04-6.37.34-12.62,1.48-18.73,3.35-5.49,1.68-10.73,3.94-15.67,6.87-3.47,2.05-6.69,4.43-9.71,7.11-4.09,3.64-7.5,7.8-10.15,12.59-1.65,2.97-2.8,6.13-3.56,9.45-.82,3.6-1,7.23-.57,10.89.36,3.05-.46,5.7-2.86,7.69-2.37,1.95-5.56,2.66-8.45,1.53-3.45-1.35-4.97-4.87-6.14-8.12-.8-2.21-1.4-4.49-1.81-6.8ZM199.83,144.11c.07.03.14.06.21.09.15-.25.31-.5.44-.76,1.49-3.01,3.34-5.79,5.25-8.54,1.72-2.48,3.09-5.15,4.29-7.92,1.83-4.23,2.9-8.65,3.25-13.23.41-5.35-.34-10.57-2.16-15.62-1.26-3.5-2.97-6.78-5.15-9.82-2.77-3.86-6.03-7.24-9.78-10.16-6.24-4.85-13.19-8.37-20.66-10.85-4.12-1.37-8.35-2.38-12.65-3.09-3.31-.55-6.63-.9-9.97-1.05-6.67-.3-13.32,0-19.93,1.03-5.33.84-10.56,2.05-15.68,3.73-5.62,1.84-11.04,4.17-16.18,7.1-7.44,4.25-14.05,9.49-19.6,16.05-3.29,3.89-5.98,8.13-7.98,12.81-2.59,6.06-3.82,12.35-3.31,18.96.21,2.67.7,5.33,1.48,7.89.39,1.28.86,2.54,1.39,3.77.47,1.08.93,2.36,2.37,2.19,1.42-.17,2.19-1.22,2.01-2.58-.42-3.15-.4-6.3.01-9.46.37-2.85,1.02-5.63,1.98-8.31,1-2.78,2.29-5.43,3.83-7.96,4.1-6.77,9.49-12.32,15.86-16.95,3.53-2.57,7.27-4.77,11.19-6.68,3.67-1.78,7.45-3.3,11.36-4.46,5.79-1.71,11.68-2.89,17.7-3.37,5.48-.44,10.95-.45,16.41.15,3.65.4,7.27,1.02,10.83,2,4.11,1.13,8.12,2.52,12,4.31,4.64,2.14,8.94,4.84,12.82,8.15,2.88,2.45,5.45,5.2,7.65,8.3,2.36,3.33,4.27,6.86,5.46,10.77,1.45,4.76,2.17,9.57,1.47,14.57-.48,3.42-1.28,6.75-2.49,9.97-1.01,2.7-2.21,5.34-3.33,8-.14.32-.27.65-.4.97ZM181.83,161.74c.06-.01.12-.03.19-.04.02-.16.03-.33.05-.49.13-1.73.22-3.46.4-5.19.16-1.51.42-3.01.68-4.51.36-2.1.7-4.2,1.16-6.28.83-3.74,1.84-7.43,2.22-11.26.2-2.02.1-4.03-.27-5.99-.26-1.38-.72-2.74-1.23-4.08-.84-2.21-1.97-4.25-3.39-6.1-1.59-2.07-3.43-3.93-5.49-5.57-4.48-3.57-9.56-5.9-15.03-7.43-3.55-.99-7.15-1.67-10.85-1.93-3.63-.25-7.24-.26-10.85.14-4.09.45-8.12,1.2-12.05,2.45-6.32,2.01-12.22,4.81-17.42,8.98-5.14,4.12-9.3,9-11.62,15.26-1.45,3.92-1.86,8.08-1.32,12.24.26,2.01,1.45,4.1,3.73,4.12,1.68.01,2.99-1.17,3.34-2.76.22-.98.44-1.96.74-2.92,1.27-4.12,3.54-7.67,6.45-10.8,3.07-3.31,6.69-5.93,10.71-7.98,5.25-2.68,10.81-4.34,16.68-5,4.9-.55,9.79-.49,14.64.43,5.6,1.06,10.8,3.09,15.46,6.42,3.11,2.23,5.71,4.92,7.68,8.2,1.42,2.37,2.4,4.91,2.88,7.64.46,2.56.44,5.15.51,7.73.03.97.02,1.95.1,2.92.29,3.64.88,7.24,1.59,10.83.07.33.2.65.3.98ZM167.57,165.41s.08-.06.11-.09c-.06-.13-.1-.26-.17-.38-1.29-2.21-2.6-4.4-3.88-6.62-1.55-2.69-3-5.43-4.81-7.97-1.74-2.43-3.89-4.4-6.54-5.7-3.34-1.65-6.93-2.46-10.69-2.22-2.93.18-9.39.8-8.08,5.37.9,3.13,4.93,2.33,7.37,2.19,3.15-.18,6.18.33,9.07,1.62,3.57,1.58,6.72,3.81,9.63,6.38,2.53,2.23,4.96,4.59,7.43,6.89.19.17.37.34.56.52Z"/>
</svg>