<svg width="201" height="201" viewBox="0 0 201 201" fill="none" xmlns="http://www.w3.org/2000/svg">
<rect width="200" height="200" transform="translate(0.0382538 0.530762)" fill="url(#paint0_linear_1140_8691)"/>
<path d="M64.9743 122.128C64.203 122.128 63.5735 121.501 63.5735 120.727C63.5735 119.953 64.2004 119.327 64.9743 119.327C65.7481 119.327 66.3751 119.953 66.3751 120.727C66.3751 121.501 65.7481 122.128 64.9743 122.128ZM64.9743 119.943C64.5414 119.943 64.1873 120.295 64.1873 120.73C64.1873 121.165 64.5388 121.517 64.9743 121.517C65.4097 121.517 65.7613 121.165 65.7613 120.73C65.7613 120.295 65.4097 119.943 64.9743 119.943Z" fill="#202020"/>
<path d="M65.7639 120.664L73.4684 115.03L73.1064 114.534L65.7639 119.904V120.664Z" fill="#202020"/>
<path d="M63.967 108.93C63.1957 108.93 62.5661 108.303 62.5661 107.529C62.5661 106.756 63.1931 106.129 63.967 106.129C64.7408 106.129 65.3678 106.756 65.3678 107.529C65.3678 108.303 64.7408 108.93 63.967 108.93ZM63.967 106.745C63.5341 106.745 63.18 107.097 63.18 107.532C63.18 107.968 63.5315 108.319 63.967 108.319C64.4024 108.319 64.7539 107.968 64.7539 107.532C64.7539 107.097 64.4024 106.745 63.967 106.745Z" fill="#202020"/>
<path d="M64.7539 107.467L72.4611 101.832L72.0991 101.336L64.7539 106.706V107.467Z" fill="#202020"/>
<path d="M49.6937 117.608C49.1481 117.608 48.7048 117.165 48.7048 116.619C48.7048 116.073 49.1481 115.63 49.6937 115.63C50.2394 115.63 50.6827 116.073 50.6827 116.619C50.6827 117.165 50.2394 117.608 49.6937 117.608ZM49.6937 116.063C49.3868 116.063 49.1376 116.312 49.1376 116.619C49.1376 116.926 49.3868 117.175 49.6937 117.175C50.0007 117.175 50.2499 116.926 50.2499 116.619C50.2499 116.312 50.0007 116.063 49.6937 116.063Z" fill="#202020"/>
<path d="M50.2525 116.575L55.6932 112.595L55.4387 112.246L50.2525 116.037V116.575Z" fill="#202020"/>
<path d="M53.1512 118.395C53.6968 118.395 54.1401 118.839 54.1401 119.384C54.1401 119.93 53.6968 120.373 53.1512 120.373C52.6055 120.373 52.1622 119.93 52.1622 119.384C52.1622 118.839 52.6055 118.395 53.1512 118.395ZM53.1512 119.94C53.4581 119.94 53.7073 119.691 53.7073 119.384C53.7073 119.077 53.4581 118.828 53.1512 118.828C52.8442 118.828 52.595 119.077 52.595 119.384C52.595 119.691 52.8442 119.94 53.1512 119.94Z" fill="#202020"/>
<path d="M49.2451 121.879L49.7593 122.039L52.5924 119.966V119.429L49.2451 121.879Z" fill="#202020"/>
<path d="M63.967 138.146C63.1957 138.146 62.5661 137.519 62.5661 136.745C62.5661 135.971 63.1931 135.344 63.967 135.344C64.7408 135.344 65.3678 135.971 65.3678 136.745C65.3678 137.519 64.7408 138.146 63.967 138.146ZM63.967 135.961C63.5341 135.961 63.18 136.312 63.18 136.748C63.18 137.183 63.5315 137.535 63.967 137.535C64.4024 137.535 64.7539 137.183 64.7539 136.748C64.7539 136.312 64.4024 135.961 63.967 135.961Z" fill="#202020"/>
<path d="M64.7539 136.682L72.4611 131.05L72.0991 130.554L64.7539 135.921V136.682Z" fill="#202020"/>
<path d="M63.9355 129.148C64.7067 129.148 65.3363 129.775 65.3363 130.549C65.3363 131.323 64.7093 131.95 63.9355 131.95C63.1616 131.95 62.5346 131.323 62.5346 130.549C62.5346 129.775 63.1616 129.148 63.9355 129.148ZM63.9355 131.333C64.3683 131.333 64.7224 130.982 64.7224 130.546C64.7224 130.111 64.3709 129.759 63.9355 129.759C63.5 129.759 63.1485 130.111 63.1485 130.546C63.1485 130.982 63.5 131.333 63.9355 131.333Z" fill="#202020"/>
<path d="M63.1459 130.612L55.4413 136.247L55.8007 136.742L63.1459 131.373V130.612Z" fill="#202020"/>
<path d="M63.9355 112.849C64.7067 112.849 65.3363 113.476 65.3363 114.25C65.3363 115.024 64.7093 115.651 63.9355 115.651C63.1616 115.651 62.5346 115.024 62.5346 114.25C62.5346 113.476 63.1616 112.849 63.9355 112.849ZM63.9355 115.035C64.3683 115.035 64.7224 114.683 64.7224 114.248C64.7224 113.812 64.3709 113.461 63.9355 113.461C63.5 113.461 63.1485 113.812 63.1485 114.248C63.1485 114.683 63.5 115.035 63.9355 115.035Z" fill="#202020"/>
<path d="M63.1459 114.313L55.4413 119.945L55.8007 120.441L63.1459 115.071V114.313Z" fill="#202020"/>
<path d="M39.8355 119.98L55.2813 124.754V148.589L71.8394 136.372L74.8824 134.127L74.2108 133.426L71.8394 135.176L56.2414 146.682V125.048L64.2057 127.508L64.4024 127.364L71.8394 121.879V120.683L64.0273 126.446L56.244 124.04V109.069L71.842 97.5664V96.3623L55.2839 108.579V108.584L39.8381 119.977L39.8355 119.98ZM55.2813 123.747L41.9393 119.623L55.2813 109.783V123.747Z" fill="#202020"/>
<path d="M133.699 120.874C133.699 120.103 134.326 119.473 135.1 119.473C135.873 119.473 136.5 120.1 136.5 120.874C136.5 121.648 135.873 122.275 135.1 122.275C134.326 122.275 133.699 121.648 133.699 120.874ZM134.313 120.874C134.313 121.307 134.664 121.661 135.1 121.661C135.535 121.661 135.887 121.31 135.887 120.874C135.887 120.439 135.535 120.087 135.1 120.087C134.664 120.087 134.313 120.439 134.313 120.874Z" fill="#202020"/>
<path d="M134.31 120.809L126.605 115.176L126.967 114.681L134.31 120.048V120.809Z" fill="#202020"/>
<path d="M134.709 107.677C134.709 106.905 135.336 106.276 136.11 106.276C136.883 106.276 137.51 106.903 137.51 107.677C137.51 108.45 136.883 109.077 136.11 109.077C135.336 109.077 134.709 108.45 134.709 107.677ZM135.323 107.677C135.323 108.109 135.674 108.464 136.11 108.464C136.545 108.464 136.896 108.112 136.896 107.677C136.896 107.241 136.545 106.89 136.11 106.89C135.674 106.89 135.323 107.241 135.323 107.677Z" fill="#202020"/>
<path d="M135.32 107.611L127.613 101.979L127.975 101.483L135.32 106.853V107.611Z" fill="#202020"/>
<path d="M149.391 116.766C149.391 116.221 149.835 115.777 150.38 115.777C150.926 115.777 151.369 116.221 151.369 116.766C151.369 117.312 150.926 117.755 150.38 117.755C149.835 117.755 149.391 117.312 149.391 116.766ZM149.824 116.766C149.824 117.073 150.073 117.322 150.38 117.322C150.687 117.322 150.936 117.073 150.936 116.766C150.936 116.459 150.687 116.21 150.38 116.21C150.073 116.21 149.824 116.459 149.824 116.766Z" fill="#202020"/>
<path d="M149.821 116.721L144.381 112.742L144.635 112.39L149.821 116.184V116.721Z" fill="#202020"/>
<path d="M147.912 119.531C147.912 120.077 147.468 120.52 146.923 120.52C146.377 120.52 145.934 120.077 145.934 119.531C145.934 118.985 146.377 118.542 146.923 118.542C147.468 118.542 147.912 118.985 147.912 119.531ZM147.479 119.531C147.479 119.224 147.23 118.975 146.923 118.975C146.616 118.975 146.367 119.224 146.367 119.531C146.367 119.838 146.616 120.087 146.923 120.087C147.23 120.087 147.479 119.838 147.479 119.531Z" fill="#202020"/>
<path d="M150.829 122.026L150.315 122.183L147.481 120.113V119.576L150.829 122.026Z" fill="#202020"/>
<path d="M134.709 136.892C134.709 136.121 135.336 135.491 136.11 135.491C136.883 135.491 137.51 136.118 137.51 136.892C137.51 137.666 136.883 138.293 136.11 138.293C135.336 138.293 134.709 137.666 134.709 136.892ZM135.323 136.892C135.323 137.325 135.674 137.679 136.11 137.679C136.545 137.679 136.896 137.327 136.896 136.892C136.896 136.456 136.545 136.105 136.11 136.105C135.674 136.105 135.323 136.456 135.323 136.892Z" fill="#202020"/>
<path d="M135.32 136.829L127.613 131.194L127.975 130.698L135.32 136.068V136.829Z" fill="#202020"/>
<path d="M137.539 130.696C137.539 131.467 136.912 132.097 136.138 132.097C135.365 132.097 134.738 131.47 134.738 130.696C134.738 129.922 135.365 129.295 136.138 129.295C136.912 129.295 137.539 129.922 137.539 130.696ZM136.925 130.696C136.925 130.263 136.574 129.909 136.138 129.909C135.703 129.909 135.351 130.26 135.351 130.696C135.351 131.131 135.703 131.483 136.138 131.483C136.574 131.483 136.925 131.131 136.925 130.696Z" fill="#202020"/>
<path d="M136.928 130.759L144.633 136.393L144.273 136.889L136.928 131.519V130.759Z" fill="#202020"/>
<path d="M137.539 114.395C137.539 115.166 136.912 115.795 136.138 115.795C135.367 115.795 134.738 115.169 134.738 114.395C134.738 113.621 135.365 112.994 136.138 112.994C136.912 112.994 137.539 113.621 137.539 114.395ZM136.925 114.395C136.925 113.962 136.574 113.608 136.138 113.608C135.703 113.608 135.351 113.959 135.351 114.395C135.351 114.83 135.703 115.182 136.138 115.182C136.574 115.182 136.925 114.83 136.925 114.395Z" fill="#202020"/>
<path d="M136.928 114.458L144.633 120.092L144.273 120.588L136.928 115.218V114.458Z" fill="#202020"/>
<path d="M144.793 108.731V108.726L128.234 96.5092V97.7132L143.832 109.216V124.187L136.049 126.593L128.237 120.83V122.026L135.674 127.511L135.871 127.655L143.835 125.195V146.829L128.237 135.323L125.866 133.573L125.194 134.274L128.237 136.519L144.795 148.736V124.901L160.241 120.126L144.795 108.734L144.793 108.731ZM144.793 109.927L158.135 119.767L144.793 123.891V109.927Z" fill="#202020"/>
<path d="M123.13 40.5627V43.1519L104.365 52.8475V70.8694H106.291V54.0201L123.132 45.3187V47.6587H130.228V40.5627H123.132H123.13ZM128.303 45.7358H125.055V42.4882H128.303V45.7358Z" fill="#202020"/>
<path d="M69.8431 40.5627V47.6587H76.939V45.3187L93.7804 54.0201V70.8694H95.7059V52.8475L76.9417 43.1519V40.5627H69.8457H69.8431ZM71.7686 42.4882H75.0162V45.7358H71.7686V42.4882Z" fill="#202020"/>
<path d="M113.148 67.0211H87.8335L78.0225 81.3494H122.959L113.148 67.0211Z" fill="black"/>
<path d="M128.04 83.2747H100.034H72.0256L66.4328 93.8597H71.8341V101.438V110.9V119.04V128.503V131.102L77.3037 136.803L80.449 140.079L100.034 160.493L119.62 140.079L122.762 136.803L128.232 131.102V128.503V119.04V110.9V101.438V93.8597H133.636L128.04 83.2747Z" fill="#FFF200"/>
<path d="M133.636 93.8597L128.043 83.2747H100.034H72.0256L66.4328 93.8597H71.8341V119.04V128.503V131.102L77.3037 136.803L80.449 140.079L100.034 160.493L119.62 140.082L122.765 136.805L128.234 131.105V101.441V93.8623H133.636V93.8597ZM72.7969 93.8597H99.0716V101.438H72.7969V93.8597ZM72.7969 110.9H99.0716V119.04H72.7969V110.9ZM72.7969 130.714V128.503H99.0716V136.803H78.6389L72.7995 130.714H72.7969ZM87.5921 146.136H99.0716V158.101L87.5921 146.136ZM100.994 146.136H112.474L100.994 158.101V146.136ZM127.269 130.714L121.427 136.803H100.994V128.503H127.269V130.714ZM127.269 119.04H100.994V110.9H127.269V119.04ZM127.269 101.438H100.994V93.8597H127.269V101.438Z" fill="black"/>
<g style="mix-blend-mode:multiply" opacity="0.56">
<path d="M127.385 115.308L100.034 143.812L72.6841 115.308L71.8341 114.424V119.041V128.503V131.102L77.3037 136.803L80.449 140.079L100.034 160.493L119.62 140.079L122.762 136.803L128.232 131.102V128.503V119.041V114.424L127.385 115.308Z" fill="#FBB040"/>
</g>
<g style="mix-blend-mode:multiply" opacity="0.56">
<path d="M100.026 83.2827H93.0486V153.227L100.026 160.499L107.002 153.227V83.2827H100.026Z" fill="#FBB040"/>
</g>
<defs>
<linearGradient id="paint0_linear_1140_8691" x1="40.4336" y1="20.6238" x2="161.975" y2="181.753" gradientUnits="userSpaceOnUse">
<stop stop-color="#E9E9E9"/>
<stop offset="1" stop-color="#B7BDBD"/>
</linearGradient>
</defs>
</svg>
