<svg width="22" height="24" viewBox="0 0 22 24" fill="none" xmlns="http://www.w3.org/2000/svg">
<path d="M13.6362 21.9043L12.057 23.484C11.6027 23.9383 10.8636 23.9378 10.4093 23.484L7.04688 20.121L8.726 18.4419L11.4352 21.1511C11.822 21.5384 12.4967 21.5384 12.883 21.1511C13.029 21.0056 13.2829 21.0056 13.4284 21.1511L13.6362 21.3594C13.7864 21.5096 13.7864 21.7541 13.6362 21.9043Z" fill="white"/>
<path d="M15.871 9.12698L12.5625 5.81846C12.9708 5.50755 13.4659 5.33691 13.9878 5.33691H13.9888C14.6206 5.33691 15.2147 5.58397 15.6611 6.03044C16.5044 6.87524 16.5724 8.20315 15.871 9.12698Z" fill="white"/>
<path d="M18.1565 12.9598C18.0926 13.3052 17.8718 13.5847 17.5509 13.7271L8.79883 17.6103L4.07812 12.8896L7.96136 4.13705C8.10373 3.81619 8.38324 3.59531 8.72817 3.53145C9.07363 3.4676 9.41332 3.5728 9.66142 3.8209L11.8634 6.02292C11.8634 6.02292 11.8655 6.02606 11.8671 6.02763C11.8682 6.0292 11.8702 6.02973 11.8718 6.0313L15.6572 9.81666C15.6572 9.81666 15.6593 9.82032 15.6608 9.82189C15.6624 9.82346 15.6645 9.82398 15.6661 9.82555L17.867 12.0265C18.1151 12.2746 18.2209 12.6154 18.1565 12.9598Z" fill="white"/>
<path d="M8.27 17.991L6.36528 19.8957L6.36423 19.8967L5.46134 20.8002C5.02428 21.2367 4.31296 21.2367 3.87538 20.8002L3.41006 20.3343L2.37945 19.3032L0.882478 17.8062C0.445424 17.3691 0.445424 16.6578 0.882478 16.2208L3.69114 13.4121L5.98109 15.7015L8.27052 17.991H8.27Z" fill="white"/>
<path d="M2.73656 20.5598L2.23251 21.0633C1.78865 21.5072 1.06634 21.5072 0.621956 21.0633C0.178098 20.6194 0.178098 19.8966 0.621956 19.4527L1.12601 18.9492L2.73656 20.5598Z" fill="white"/>
<path d="M16.5146 0.814351C19.0275 0.814351 21.072 2.85777 21.072 5.36861C21.072 5.545 21.2149 5.6879 21.3913 5.6879C21.5677 5.6879 21.7106 5.545 21.7106 5.36861C21.7106 2.50551 19.3798 0.176305 16.5146 0.175781C16.3382 0.175781 16.1953 0.318674 16.1953 0.495066C16.1953 0.671458 16.3382 0.814351 16.5146 0.814351Z" fill="white"/>
<path d="M16.5141 2.85781C17.9006 2.85781 19.0291 3.9842 19.0291 5.36864C19.0291 5.54504 19.172 5.68793 19.3484 5.68793C19.5248 5.68793 19.6677 5.54504 19.6677 5.36864C19.6677 3.63247 18.2534 2.21924 16.5146 2.21924C16.3382 2.21924 16.1953 2.36213 16.1953 2.53852C16.1953 2.71491 16.3382 2.85781 16.5146 2.85781H16.5141Z" fill="white"/>
<path d="M16.5146 4.90127C16.7753 4.90127 16.9867 5.11116 16.9867 5.36868C16.9867 5.54507 17.1296 5.68796 17.306 5.68796C17.4824 5.68796 17.6253 5.54507 17.6253 5.36868C17.6253 4.7589 17.127 4.2627 16.5146 4.2627C16.3382 4.2627 16.1953 4.40559 16.1953 4.58198C16.1953 4.75837 16.3382 4.90127 16.5146 4.90127Z" fill="white"/>
</svg>
