<svg width="18" height="19" viewBox="0 0 18 19" fill="none" xmlns="http://www.w3.org/2000/svg">
<path d="M6.38214 17.5502V14.7389C6.38214 14.0266 6.96146 13.4482 7.67827 13.4436H10.3136C11.0341 13.4436 11.618 14.0239 11.618 14.7389V17.5419C11.618 18.1598 12.1203 18.6621 12.7427 18.6667H14.5393C15.3779 18.6693 16.1834 18.3397 16.7796 17.75C17.0734 17.4597 17.3067 17.114 17.4661 16.7329C17.6255 16.3518 17.7077 15.943 17.7081 15.5299V7.54416C17.7081 6.87043 17.4075 6.23244 16.8877 5.80071L10.7811 0.951686C10.2625 0.540344 9.61718 0.321932 8.9554 0.333803C8.29361 0.345674 7.65651 0.587092 7.15304 1.01677L1.17838 5.80071C0.909906 6.00676 0.690951 6.27028 0.537574 6.57196C0.384196 6.87364 0.300284 7.20583 0.291992 7.54416V15.5217C0.291992 17.2587 1.71003 18.6667 3.4599 18.6667H5.21618C5.51592 18.6685 5.80374 18.5521 6.0164 18.3422C6.22906 18.1332 6.34914 17.8472 6.34914 17.5502H6.38214Z" fill="black"/>
</svg>
