<svg width="24" height="24" viewBox="0 0 24 24" fill="none" xmlns="http://www.w3.org/2000/svg">
<path d="M20.6289 15.999L20.3989 15.721C19.3689 14.474 18.7439 13.721 18.7439 10.19C18.7439 8.362 18.3069 6.862 17.4439 5.737C16.8089 4.905 15.9499 4.275 14.8179 3.809C14.8032 3.80105 14.79 3.79055 14.7789 3.778C14.3719 2.414 13.2569 1.5 11.9999 1.5C10.7439 1.5 9.62989 2.414 9.22189 3.776C9.21097 3.78803 9.19813 3.79817 9.18389 3.806C6.53989 4.896 5.25589 6.983 5.25589 10.189C5.25589 13.722 4.63289 14.475 3.60089 15.72L3.37089 15.999C3.17012 16.2415 3.04299 16.5363 3.00453 16.8488C2.96608 17.1612 3.01791 17.4781 3.15389 17.762C3.44289 18.372 4.05889 18.75 4.76289 18.75H19.2429C19.9429 18.75 20.5549 18.372 20.8449 17.765C20.9813 17.4809 21.0335 17.1637 20.9952 16.8509C20.9569 16.5381 20.8298 16.2428 20.6289 16V15.999Z" fill="white"/>
<path d="M12.002 22.5C12.6796 22.4996 13.3444 22.3158 13.9259 21.9681C14.5075 21.6204 14.984 21.1217 15.305 20.525C15.3277 20.4819 15.3326 20.4317 15.3188 20.385C15.305 20.3383 15.2735 20.2988 15.231 20.275C15.203 20.2589 15.1713 20.2502 15.139 20.25H8.86803C8.83568 20.2499 8.80386 20.2582 8.77565 20.2741C8.74743 20.2899 8.72379 20.3128 8.707 20.3404C8.6902 20.3681 8.68083 20.3996 8.67979 20.4319C8.67874 20.4643 8.68606 20.4963 8.70103 20.525C9.02195 21.1216 9.49834 21.6201 10.0797 21.9678C10.661 22.3155 11.3256 22.4994 12.003 22.5H12.002Z" fill="white"/>
</svg>
