<svg width="40" height="40" viewBox="0 0 40 40" fill="white" xmlns="http://www.w3.org/2000/svg">
<path d="M22.6342 29.9044L21.0551 31.4841C20.6008 31.9384 19.8617 31.9379 19.4074 31.4841L16.0449 28.1211L17.724 26.442L20.4333 29.1512C20.8201 29.5385 21.4948 29.5385 21.881 29.1512C22.0271 29.0057 22.2809 29.0057 22.4264 29.1512L22.6342 29.3595C22.7845 29.5097 22.7845 29.7542 22.6342 29.9044Z" fill="black"/>
<path d="M24.8666 17.1267L21.5581 13.8182C21.9664 13.5073 22.4615 13.3366 22.9834 13.3366H22.9844C23.6162 13.3366 24.2103 13.5837 24.6567 14.0302C25.5 14.875 25.568 16.2029 24.8666 17.1267Z" fill="black"/>
<path d="M27.1528 20.9597C27.089 21.3051 26.8681 21.5846 26.5472 21.727L17.7952 25.6102L13.0745 20.8895L16.9577 12.1369C17.1001 11.8161 17.3796 11.5952 17.7245 11.5313C18.07 11.4675 18.4097 11.5727 18.6578 11.8208L20.8598 14.0228C20.8598 14.0228 20.8619 14.0259 20.8634 14.0275C20.8645 14.0291 20.8666 14.0296 20.8682 14.0312L24.6535 17.8165C24.6535 17.8165 24.6556 17.8202 24.6572 17.8218C24.6587 17.8233 24.6608 17.8239 24.6624 17.8254L26.8634 20.0264C27.1115 20.2745 27.2172 20.6152 27.1528 20.9597Z" fill="black"/>
<path d="M17.2729 25.9908L15.3682 27.8955L15.3672 27.8965L14.4643 28.7999C14.0272 29.2365 13.3159 29.2365 12.8783 28.7999L12.413 28.3341L11.3824 27.303L9.88541 25.806C9.44835 25.3689 9.44835 24.6576 9.88541 24.2206L12.6941 21.4119L14.984 23.7013L17.2735 25.9908H17.2729Z" fill="black"/>
<path d="M11.7356 28.5597L11.2315 29.0632C10.7877 29.5071 10.0654 29.5071 9.62098 29.0632C9.17712 28.6194 9.17712 27.8965 9.62098 27.4527L10.125 26.9492L11.7356 28.5597Z" fill="black"/>
<path d="M25.5158 8.8142C28.0287 8.8142 30.0732 10.8576 30.0732 13.3685C30.0732 13.5448 30.2161 13.6877 30.3925 13.6877C30.5689 13.6877 30.7118 13.5448 30.7118 13.3685C30.7118 10.5054 28.381 8.17615 25.5158 8.17563C25.3394 8.17563 25.1965 8.31852 25.1965 8.49491C25.1965 8.67131 25.3394 8.8142 25.5158 8.8142Z" fill="black"/>
<path d="M25.5158 10.8576C26.9023 10.8576 28.0308 11.984 28.0308 13.3684C28.0308 13.5448 28.1737 13.6877 28.3501 13.6877C28.5265 13.6877 28.6694 13.5448 28.6694 13.3684C28.6694 11.6323 27.2551 10.219 25.5163 10.219C25.3399 10.219 25.197 10.3619 25.197 10.5383C25.197 10.7147 25.3399 10.8576 25.5163 10.8576H25.5158Z" fill="black"/>
<path d="M25.5153 12.901C25.776 12.901 25.9875 13.1109 25.9875 13.3684C25.9875 13.5448 26.1303 13.6877 26.3067 13.6877C26.4831 13.6877 26.626 13.5448 26.626 13.3684C26.626 12.7586 26.1277 12.2624 25.5153 12.2624C25.3389 12.2624 25.196 12.4053 25.196 12.5817C25.196 12.7581 25.3389 12.901 25.5153 12.901Z" fill="black"/>
</svg>
