<svg width="24" height="23" viewBox="0 0 24 23" fill="none" xmlns="http://www.w3.org/2000/svg">
<path d="M16.8773 12.1031C16.7923 12.4314 16.5499 13.2427 16.1501 14.5372H17.6156C17.2384 13.3245 17.0259 12.6386 16.9781 12.4796C16.9304 12.3206 16.8968 12.1951 16.8773 12.1031Z" fill="white"/>
<path d="M21.375 8.25H12.375C11.8779 8.2506 11.4013 8.44833 11.0498 8.79983C10.6983 9.15133 10.5006 9.6279 10.5 10.125V18.375C10.5006 18.8721 10.6983 19.3487 11.0498 19.7002C11.4013 20.0517 11.8779 20.2494 12.375 20.25H17.5125L20.418 22.1869C20.4745 22.2243 20.54 22.2456 20.6076 22.2488C20.6753 22.2519 20.7425 22.2367 20.8022 22.2047C20.8619 22.1727 20.9118 22.1251 20.9466 22.0671C20.9814 22.009 20.9999 21.9426 21 21.8749V20.25H21.375C21.8721 20.2494 22.3487 20.0517 22.7002 19.7002C23.0517 19.3487 23.2494 18.8721 23.25 18.375V10.125C23.2494 9.6279 23.0517 9.15133 22.7002 8.79983C22.3487 8.44833 21.8721 8.2506 21.375 8.25ZM18.3075 16.875L17.8995 15.537H15.8505L15.4429 16.875H14.1585L16.1426 11.2301H17.6002L19.5915 16.875H18.3075Z" fill="white"/>
<path d="M5.22791 4.79664C5.33189 5.15539 5.48403 5.49839 5.68016 5.81626C5.83909 6.08957 6.02951 6.3433 6.24753 6.57226C6.45613 6.34562 6.63542 6.09364 6.78116 5.82226C6.9647 5.50148 7.1011 5.15593 7.18616 4.79626L5.22791 4.79664Z" fill="white"/>
<path d="M10.875 0H1.875C1.3779 0.000595447 0.901334 0.198331 0.549832 0.549832C0.198331 0.901334 0.000595447 1.3779 0 1.875V10.125C0.000595447 10.6221 0.198331 11.0987 0.549832 11.4502C0.901334 11.8017 1.3779 11.9994 1.875 12H2.25V13.6249C2.24999 13.6928 2.26841 13.7594 2.3033 13.8176C2.33818 13.8759 2.38823 13.9235 2.44809 13.9556C2.50795 13.9876 2.57538 14.0028 2.64319 13.9995C2.711 13.9962 2.77665 13.9746 2.83313 13.9369L5.7375 12H9.75V10.125C9.75089 9.42908 10.0277 8.76192 10.5198 8.26983C11.0119 7.77774 11.6791 7.50089 12.375 7.5H12.75V1.875C12.7494 1.3779 12.5517 0.901334 12.2002 0.549832C11.8487 0.198331 11.3721 0.000595447 10.875 0ZM8.90775 9.2595C7.95354 8.99414 7.05946 8.54722 6.2745 7.94325C5.46422 8.5523 4.54535 9.00143 3.567 9.26663C3.43543 8.89992 3.24382 8.55763 3 8.25375C3.89409 8.08245 4.74544 7.73592 5.505 7.23413C5.17498 6.87597 4.88929 6.47936 4.65413 6.05288C4.43234 5.65585 4.25778 5.23423 4.134 4.79663H3.999C3.675 4.79663 3.37125 4.81012 3.10125 4.83675V3.7905C3.40819 3.82576 3.71706 3.84154 4.026 3.83775H5.63287V3.40575C5.63393 3.25171 5.6205 3.0979 5.59275 2.94638H6.7605C6.73272 3.09562 6.71928 3.24719 6.72038 3.399V3.83775H8.4285C8.73981 3.84153 9.05105 3.82575 9.36038 3.7905V4.8375C9.06413 4.80896 8.76661 4.79557 8.469 4.79738H8.31375C8.2098 5.25791 8.0459 5.70283 7.82625 6.12075C7.61455 6.52279 7.35381 6.89702 7.05 7.23487C7.78811 7.72786 8.62431 8.055 9.501 8.19375C9.24364 8.51238 9.04297 8.87288 8.90775 9.2595Z" fill="white"/>
</svg>
