<svg width="221" height="217" viewBox="0 0 221 217" fill="none" xmlns="http://www.w3.org/2000/svg">
<path fill-rule="evenodd" clip-rule="evenodd" d="M116.991 44.6567L152.355 57.9023C159.107 60.4743 164.636 68.4473 164.572 75.7131V127.795C164.572 133.003 161.164 139.819 156.985 142.97L121.62 169.397C115.383 174.09 105.16 174.09 98.9229 169.397L63.5585 142.97C59.379 139.883 55.9712 133.003 55.9712 127.795V75.7131C55.9712 68.4473 61.5009 60.4743 68.3166 57.9023L103.681 44.6567C107.346 43.3064 113.326 43.3064 116.991 44.6567ZM124.308 86.7209C123.038 85.4964 121.36 84.68 119.456 84.68H101.133C99.2285 84.68 97.5051 85.451 96.2806 86.7209C95.0107 87.9454 94.2397 89.6688 94.2397 91.5736V97.424C94.2397 101.733 96.0085 105.678 98.8657 108.535C101.723 111.393 105.669 113.161 109.977 113.161H110.567C114.875 113.161 118.821 111.393 121.678 108.535C124.535 105.678 126.304 101.733 126.304 97.424V91.5736C126.304 89.7141 125.533 87.9907 124.308 86.7209ZM114.83 100.417C114.24 101.234 113.469 101.914 112.517 102.322V104.227C112.517 104.771 112.29 105.27 111.927 105.678C111.564 106.041 111.065 106.268 110.521 106.268H110.068C109.523 106.268 109.025 106.041 108.662 105.678C108.299 105.315 108.072 104.816 108.072 104.227V102.322C107.12 101.914 106.349 101.234 105.759 100.417C105.124 99.5102 104.761 98.4218 104.761 97.2426C104.761 95.7006 105.396 94.3401 106.394 93.297C107.392 92.2992 108.798 91.6643 110.34 91.6643C111.882 91.6643 113.288 92.2992 114.285 93.297C115.283 94.2947 115.873 95.7006 115.873 97.1973C115.827 98.3764 115.465 99.5102 114.83 100.417ZM104.807 83.6823H101.406V78.6028C101.496 76.1991 102.54 74.0676 104.127 72.5256C105.714 70.9836 107.891 70.0312 110.295 70.0312C112.698 70.0312 114.875 70.9836 116.463 72.5256C118.05 74.0676 119.093 76.1991 119.184 78.6028V83.6823H115.782V78.6482C115.737 77.1969 115.057 75.927 114.104 74.9746C113.107 74.0676 111.746 73.478 110.295 73.478C108.798 73.478 107.483 74.0222 106.485 74.9746C105.533 75.927 104.853 77.2422 104.807 78.6935V83.6823ZM113.514 94.0227C112.697 93.2063 111.563 92.6621 110.294 92.6621C109.024 92.6621 107.89 93.161 107.074 93.9773C106.257 94.7936 105.758 95.9728 105.758 97.1973C105.758 98.1497 106.076 99.0568 106.575 99.7824C107.119 100.553 107.845 101.098 108.706 101.46C108.933 101.506 109.069 101.733 109.069 101.959V104.227C109.069 104.499 109.16 104.771 109.341 104.953C109.523 105.134 109.795 105.27 110.067 105.27H110.475C110.747 105.27 111.019 105.179 111.201 104.953C111.382 104.771 111.518 104.499 111.518 104.227V101.959C111.518 101.778 111.654 101.551 111.836 101.506C112.743 101.188 113.468 100.599 114.012 99.8277C114.511 99.1021 114.829 98.1951 114.829 97.1973C114.829 95.9728 114.33 94.839 113.514 94.0227ZM112.153 99.1021C111.654 99.5556 111.019 99.8731 110.294 99.8731C109.568 99.8731 108.888 99.601 108.434 99.1021C107.935 98.6486 107.663 97.9683 107.663 97.2427C107.663 96.517 107.981 95.8367 108.434 95.3832C108.888 94.8843 109.568 94.6122 110.294 94.6122C111.019 94.6122 111.699 94.9297 112.153 95.3832C112.607 95.8367 112.924 96.517 112.924 97.2427C112.924 97.9683 112.652 98.6032 112.153 99.1021ZM145.315 134.53H75.2293C74.56 134.53 74.0161 133.986 74.0161 133.316V121.01C74.0161 120.341 74.56 119.797 75.2293 119.797H145.315C145.985 119.797 146.528 120.341 146.528 121.01V133.316C146.528 133.986 145.985 134.53 145.315 134.53ZM131.364 126.121H130.039C128.658 126.121 128.658 128.213 130.039 128.213H131.364L130.429 129.147C129.767 129.809 130.248 130.932 131.168 130.932C131.629 130.932 131.838 130.718 132.42 130.12C132.542 129.994 132.681 129.852 132.842 129.691V131.016C132.842 132.396 134.933 132.396 134.933 131.016V129.691L135.868 130.625C136.837 131.594 138.329 130.123 137.346 129.147L136.412 128.213H137.736C139.117 128.213 139.117 126.121 137.736 126.121H136.412L137.346 125.187C138.322 124.211 136.844 122.732 135.868 123.709L134.933 124.643V123.318C134.933 121.938 132.842 121.938 132.842 123.318V124.643L131.907 123.709C130.931 122.732 129.453 124.211 130.429 125.187L131.364 126.121ZM115.627 126.121H114.302C112.922 126.121 112.922 128.213 114.302 128.213H115.627L114.693 129.147C114.03 129.809 114.511 130.932 115.432 130.932C115.893 130.932 116.101 130.718 116.683 130.12C116.805 129.994 116.944 129.852 117.105 129.691V131.016C117.105 132.396 119.197 132.396 119.197 131.016V129.691L120.131 130.625C121.1 131.594 122.592 130.13 121.609 129.147L120.675 128.213H122C123.38 128.213 123.38 126.121 122 126.121H120.675L121.609 125.187C122.585 124.211 121.107 122.732 120.131 123.709L119.197 124.643V123.318C119.197 121.938 117.105 121.938 117.105 123.318V124.643L116.171 123.709C115.195 122.732 113.717 124.211 114.693 125.187L115.627 126.121ZM99.8905 126.121H98.5657C97.1852 126.121 97.1852 128.213 98.5657 128.213H99.8905L98.9562 129.147C98.2938 129.809 98.7749 130.932 99.6952 130.932C100.156 130.932 100.365 130.718 100.947 130.12C101.069 129.994 101.208 129.852 101.369 129.691V131.016C101.369 132.396 103.46 132.396 103.46 131.016V129.691L104.395 130.625C105.364 131.594 106.856 130.13 105.873 129.147L104.938 128.213H106.263C107.644 128.213 107.644 126.121 106.263 126.121H104.938L105.873 125.187C106.849 124.211 105.371 122.732 104.395 123.709L103.46 124.643V123.318C103.46 121.938 101.369 121.938 101.369 123.318V124.643L100.434 123.709C99.4582 122.732 97.98 124.211 98.9562 125.187L99.8905 126.121ZM84.1539 126.121H82.8291C81.4486 126.121 81.4486 128.213 82.8291 128.213H84.1539L83.2196 129.147C82.5572 129.809 83.0383 130.932 83.9587 130.932C84.4196 130.932 84.6282 130.718 85.2101 130.12C85.3323 129.994 85.4711 129.852 85.632 129.691V131.016C85.632 132.396 87.7237 132.396 87.7237 131.016V129.691L88.658 130.625C89.6272 131.594 91.1193 130.123 90.1362 129.147L89.2019 128.213H90.5266C91.9071 128.213 91.9071 126.121 90.5266 126.121H89.2019L90.1362 125.187C91.1123 124.211 89.6342 122.732 88.658 123.709L87.7237 124.643V123.318C87.7237 121.938 85.632 121.938 85.632 123.318V124.643L84.6977 123.709C83.7216 122.732 82.2435 124.211 83.2196 125.187L84.1539 126.121Z" fill="#1890FF"/>
<circle cx="110.272" cy="108.281" r="91.7197" stroke="#606060" stroke-width="5" stroke-linecap="round" stroke-dasharray="17 17"/>
<circle cx="110.272" cy="16.5608" r="14.5" fill="white" stroke="#D9D9D9" stroke-width="4"/>
<circle cx="110.272" cy="200" r="14.5" fill="white" stroke="#D9D9D9" stroke-width="4"/>
<circle cx="18.5522" cy="108.281" r="14.5" fill="white" stroke="#D9D9D9" stroke-width="4"/>
<circle cx="201.991" cy="108.281" r="14.5" fill="white" stroke="#D9D9D9" stroke-width="4"/>
<circle cx="6.25391" cy="141.042" r="6" fill="#D9D9D9"/>
<circle cx="10.6045" cy="64.5631" r="6" fill="#57A4FF"/>
<circle cx="161.978" cy="202.33" r="5" fill="#D9D9D9"/>
<circle cx="203.373" cy="165.84" r="4" fill="#D9D9D9"/>
<circle cx="143.146" cy="175.451" r="4" fill="#D9D9D9"/>
<circle cx="55.9712" cy="156.37" r="4" fill="#D9D9D9"/>
<circle cx="42.5527" cy="23.5706" r="2.5" fill="#D9D9D9"/>
<circle cx="177.991" cy="26.0706" r="2.5" fill="#D9D9D9"/>
<circle cx="173.754" cy="137.121" r="2.5" fill="#19B600"/>
<circle cx="144.3" cy="39.644" r="4" fill="#D9D9D9"/>
<circle cx="33.0864" cy="182.051" r="7.5" fill="#BB6CF9"/>
<circle cx="212.97" cy="71.4376" r="7.5" fill="#F9781D"/>
</svg>
